<svg xmlns="http://www.w3.org/2000/svg" viewBox="0 0 100 100" width="100" height="100">
  <defs>
    <radialGradient id="reaperBg" cx="50%" cy="50%" r="50%">
      <stop offset="0%" stop-color="#2a003b"/>
      <stop offset="100%" stop-color="#08020a"/>
    </radialGradient>
  </defs>
  <rect x="2" y="2" width="96" height="96" rx="14" fill="url(#reaperBg)" stroke="#b5179e" stroke-width="2"/>
  <!-- Hood -->
  <path d="M50 16 C30 16 26 38 24 64 C28 60 36 58 42 62 C48 66 52 66 58 62 C64 58 72 60 76 64 C74 38 70 16 50 16 Z" fill="#15081f" stroke="#7209b7" stroke-width="2"/>
  <!-- Shadow Face -->
  <ellipse cx="50" cy="46" rx="14" ry="16" fill="#000000"/>
  <!-- Glowing Eyes -->
  <ellipse cx="44" cy="44" rx="3.5" ry="2" fill="#4cc9f0" transform="rotate(-10 44 44)"/>
  <ellipse cx="56" cy="44" rx="3.5" ry="2" fill="#4cc9f0" transform="rotate(10 56 44)"/>
  <!-- Scythe Blade Background -->
  <path d="M18 22 C32 10 65 14 82 32 C70 34 50 28 32 36 Z" fill="#e0aaff" stroke="#c77dff" stroke-width="1.5" opacity="0.9"/>
  <!-- Scythe Handle -->
  <line x1="82" y1="32" x2="22" y2="88" stroke="#5a189a" stroke-width="3.5" stroke-linecap="round"/>
</svg>
